<svg width="1440" height="1024" viewBox="0 0 1440 1024" fill="none" xmlns="http://www.w3.org/2000/svg">
<rect width="1440" height="1024" fill="#E5E5E5"/>
<g clip-path="url(#clip0)">
<rect width="1440" height="1024" fill="white"/>
<rect x="720" width="807" height="1024" fill="url(#paint0_linear)"/>
<path d="M889.426 417V345.906H914.328C922.954 345.906 929.497 347.566 933.957 350.887C938.417 354.174 940.646 359.008 940.646 365.389C940.646 368.872 939.751 371.948 937.961 374.617C936.171 377.254 933.68 379.191 930.49 380.428C934.136 381.339 937.001 383.178 939.084 385.945C941.2 388.712 942.258 392.098 942.258 396.102C942.258 402.938 940.077 408.113 935.715 411.629C931.353 415.145 925.135 416.935 917.062 417H889.426ZM904.074 386.043V405.232H916.623C920.074 405.232 922.759 404.419 924.68 402.791C926.633 401.131 927.609 398.852 927.609 395.955C927.609 389.445 924.24 386.141 917.502 386.043H904.074ZM904.074 375.691H914.914C922.303 375.561 925.998 372.615 925.998 366.854C925.998 363.631 925.054 361.32 923.166 359.92C921.311 358.488 918.365 357.771 914.328 357.771H904.074V375.691ZM993.43 402.352H967.746L962.863 417H947.287L973.752 345.906H987.326L1013.94 417H998.361L993.43 402.352ZM971.701 390.486H989.475L980.539 363.875L971.701 390.486ZM1043.04 399.373L1059.15 345.906H1075.46L1050.71 417H1035.42L1010.76 345.906H1027.02L1043.04 399.373ZM1118.62 402.352H1092.94L1088.06 417H1072.48L1098.95 345.906H1112.52L1139.13 417H1123.56L1118.62 402.352ZM1096.9 390.486H1114.67L1105.73 363.875L1096.9 390.486ZM1172.09 390.975H1160.42V417H1145.77V345.906H1172.19C1180.59 345.906 1187.07 347.778 1191.62 351.521C1196.18 355.265 1198.46 360.555 1198.46 367.391C1198.46 372.241 1197.4 376.294 1195.29 379.549C1193.2 382.771 1190.03 385.343 1185.76 387.264L1201.14 416.316V417H1185.42L1172.09 390.975ZM1160.42 379.109H1172.24C1175.92 379.109 1178.76 378.182 1180.78 376.326C1182.8 374.438 1183.81 371.85 1183.81 368.562C1183.81 365.21 1182.85 362.573 1180.93 360.652C1179.04 358.732 1176.13 357.771 1172.19 357.771H1160.42V379.109ZM1209.64 417V345.906H1231.52C1237.77 345.906 1243.35 347.322 1248.26 350.154C1253.21 352.954 1257.07 356.958 1259.84 362.166C1262.6 367.342 1263.99 373.234 1263.99 379.842V383.113C1263.99 389.721 1262.62 395.597 1259.88 400.74C1257.18 405.883 1253.36 409.871 1248.41 412.703C1243.46 415.535 1237.88 416.967 1231.66 417H1209.64ZM1224.29 357.771V405.232H1231.37C1237.1 405.232 1241.48 403.361 1244.5 399.617C1247.53 395.874 1249.08 390.519 1249.14 383.553V379.793C1249.14 372.566 1247.65 367.098 1244.65 363.387C1241.66 359.643 1237.28 357.771 1231.52 357.771H1224.29ZM1302.22 377.205H1319.85V389.949H1302.22V409.871H1288.79V389.949H1271.12V377.205H1288.79V358.113H1302.22V377.205Z" fill="white"/>
<path d="M918.869 476.453L933.493 510.071L948.166 476.453H950.095V512H948.776V478.406L934.03 512H932.98L918.308 478.577V512H916.989V476.453H918.869ZM979.025 501.38H961.618L957.663 512H956.223L969.528 476.453H971.14L984.445 512H983.005L979.025 501.38ZM962.106 500.062H978.537L970.334 478.04L962.106 500.062ZM997.189 493.299L991.501 498.548V512H990.183V476.453H991.501V497.01L997.36 491.272L1012.11 476.453H1014.01L998.166 492.396L1015.23 512H1013.52L997.189 493.299ZM1041.06 494.373H1023.24V510.682H1043.55V512H1021.92V476.453H1043.55V477.771H1023.24V493.055H1041.06V494.373ZM1072.34 497.303L1084.79 476.453H1086.4L1073 498.499V512H1071.68V498.499L1058.27 476.453H1060.03L1072.34 497.303ZM1116.67 496.888C1116.67 499.964 1116.12 502.69 1115.01 505.066C1113.92 507.426 1112.36 509.257 1110.32 510.56C1108.29 511.845 1105.95 512.488 1103.29 512.488C1099.29 512.488 1096.05 511.064 1093.58 508.216C1091.1 505.368 1089.87 501.526 1089.87 496.692V491.565C1089.87 488.506 1090.41 485.787 1091.5 483.411C1092.61 481.035 1094.18 479.204 1096.21 477.918C1098.26 476.616 1100.61 475.965 1103.24 475.965C1105.9 475.965 1108.24 476.616 1110.28 477.918C1112.33 479.204 1113.9 481.043 1115.01 483.436C1116.12 485.812 1116.67 488.522 1116.67 491.565V496.888ZM1115.35 491.517C1115.35 487.22 1114.26 483.777 1112.08 481.189C1109.9 478.585 1106.96 477.283 1103.24 477.283C1099.58 477.283 1096.66 478.577 1094.48 481.165C1092.3 483.737 1091.21 487.244 1091.21 491.688V496.888C1091.21 499.72 1091.7 502.226 1092.67 504.407C1093.67 506.572 1095.07 508.24 1096.9 509.412C1098.72 510.584 1100.85 511.17 1103.29 511.17C1107 511.17 1109.94 509.876 1112.11 507.288C1114.27 504.7 1115.35 501.168 1115.35 496.692V491.517ZM1148.73 476.453V500.525C1148.73 504.285 1147.64 507.223 1145.46 509.339C1143.28 511.438 1140.32 512.488 1136.59 512.488C1132.87 512.488 1129.91 511.438 1127.73 509.339C1125.55 507.223 1124.45 504.318 1124.44 500.623V476.453H1125.75V500.477C1125.75 503.764 1126.74 506.368 1128.71 508.289C1130.69 510.21 1133.32 511.17 1136.59 511.17C1139.87 511.17 1142.49 510.21 1144.46 508.289C1146.42 506.368 1147.41 503.756 1147.41 500.452V476.453H1148.73ZM1171.68 496.79H1159.35V512H1158.03V476.453H1169.36C1172.92 476.453 1175.75 477.373 1177.85 479.212C1179.97 481.051 1181.03 483.549 1181.03 486.707C1181.03 489.132 1180.27 491.256 1178.76 493.079C1177.26 494.886 1175.35 496.009 1173.02 496.448L1182.52 511.658V512H1181.12L1171.68 496.79ZM1159.35 495.472H1170.55C1173.29 495.472 1175.49 494.642 1177.17 492.981C1178.86 491.321 1179.71 489.23 1179.71 486.707C1179.71 483.94 1178.77 481.759 1176.9 480.164C1175.05 478.569 1172.5 477.771 1169.26 477.771H1159.35V495.472ZM1204.17 510.682H1222.41V512H1202.83V476.453H1204.17V510.682ZM1230.95 512H1229.64V476.453H1230.95V512ZM1261.23 494.52H1243.01V512H1241.7V476.453H1263.72V477.771H1243.01V493.152H1261.23V494.52ZM1289.45 494.373H1271.63V510.682H1291.94V512H1270.31V476.453H1291.94V477.771H1271.63V493.055H1289.45V494.373ZM892.038 584.373H874.216V600.682H894.528V602H872.897V566.453H894.528V567.771H874.216V583.055H892.038V584.373ZM911.398 582.835L922.873 566.453H924.533L912.229 583.86L924.997 602H923.361L911.398 584.886L899.387 602H897.8L910.568 583.86L898.264 566.453H899.924L911.398 582.835ZM954.904 567.771H941.965V602H940.646V567.771H927.707V566.453H954.904V567.771ZM974.655 586.79H962.326V602H961.008V566.453H972.336C975.9 566.453 978.732 567.373 980.832 569.212C982.948 571.051 984.006 573.549 984.006 576.707C984.006 579.132 983.249 581.256 981.735 583.079C980.238 584.886 978.326 586.009 975.998 586.448L985.495 601.658V602H984.104L974.655 586.79ZM962.326 585.472H973.532C976.267 585.472 978.472 584.642 980.148 582.981C981.841 581.321 982.688 579.23 982.688 576.707C982.688 573.94 981.752 571.759 979.88 570.164C978.024 568.569 975.477 567.771 972.238 567.771H962.326V585.472ZM1012.57 591.38H995.163L991.208 602H989.768L1003.07 566.453H1004.68L1017.99 602H1016.55L1012.57 591.38ZM995.651 590.062H1012.08L1003.88 568.04L995.651 590.062ZM1037.57 566.453L1052.19 600.071L1066.87 566.453H1068.8V602H1067.48V568.406L1052.73 602H1051.68L1037.01 568.577V602H1035.69V566.453H1037.57ZM1097.7 584.373H1079.88V600.682H1100.19V602H1078.56V566.453H1100.19V567.771H1079.88V583.055H1097.7V584.373ZM1125.75 591.38H1108.35L1104.39 602H1102.95L1116.26 566.453H1117.87L1131.17 602H1129.73L1125.75 591.38ZM1108.83 590.062H1125.27L1117.06 568.04L1108.83 590.062ZM1162.52 602H1161.2L1138.25 568.699V602H1136.91V566.453H1138.25L1161.2 599.681V566.453H1162.52V602ZM1174.61 602H1173.29V566.453H1174.61V602ZM1210.96 602H1209.64L1186.69 568.699V602H1185.35V566.453H1186.69L1209.64 599.681V566.453H1210.96V602ZM1245.8 598.191C1244.9 599.428 1243.33 600.454 1241.09 601.268C1238.84 602.081 1236.37 602.488 1233.66 602.488C1231.03 602.488 1228.68 601.845 1226.61 600.56C1224.54 599.274 1222.92 597.459 1221.75 595.115C1220.59 592.771 1220 590.118 1219.97 587.156V581.053C1219.97 578.139 1220.53 575.527 1221.65 573.216C1222.78 570.905 1224.35 569.122 1226.39 567.869C1228.42 566.6 1230.71 565.965 1233.25 565.965C1236.78 565.965 1239.65 566.868 1241.87 568.675C1244.1 570.481 1245.39 572.947 1245.75 576.072H1244.43C1243.99 573.24 1242.81 571.067 1240.89 569.554C1238.97 568.04 1236.42 567.283 1233.25 567.283C1229.67 567.283 1226.78 568.561 1224.58 571.116C1222.38 573.672 1221.29 577.033 1221.29 581.199V586.863C1221.29 589.646 1221.8 592.129 1222.82 594.31C1223.87 596.491 1225.32 598.183 1227.19 599.388C1229.08 600.576 1231.24 601.17 1233.66 601.17C1236.04 601.17 1238.25 600.82 1240.28 600.12C1242.31 599.42 1243.71 598.574 1244.48 597.581V587.229H1233.62V585.887H1245.8V598.191ZM1274.61 584.52H1256.39V602H1255.08V566.453H1277.1V567.771H1256.39V583.152H1274.61V584.52ZM1307.61 566.453V590.525C1307.61 594.285 1306.52 597.223 1304.34 599.339C1302.16 601.438 1299.21 602.488 1295.48 602.488C1291.75 602.488 1288.8 601.438 1286.62 599.339C1284.44 597.223 1283.34 594.318 1283.32 590.623V566.453H1284.64V590.477C1284.64 593.764 1285.63 596.368 1287.59 598.289C1289.58 600.21 1292.21 601.17 1295.48 601.17C1298.75 601.17 1301.37 600.21 1303.34 598.289C1305.31 596.368 1306.3 593.756 1306.3 590.452V566.453H1307.61ZM1318.38 600.682H1336.62V602H1317.04V566.453H1318.38V600.682Z" fill="white"/>
</g>
<defs>
<linearGradient id="paint0_linear" x1="720" y1="960.714" x2="1613.88" y2="160.307" gradientUnits="userSpaceOnUse">
<stop stop-color="#02F0FF"/>
<stop offset="0.547365" stop-color="#9F33D1" stop-opacity="0.74"/>
<stop offset="1" stop-color="#AF52F9" stop-opacity="0.78"/>
</linearGradient>
<clipPath id="clip0">
<rect width="1440" height="1024" fill="white"/>
</clipPath>
</defs>
</svg>
