<svg width="1440" height="1024" viewBox="0 0 1440 1024" fill="none" xmlns="http://www.w3.org/2000/svg">
<rect width="1440" height="1024" fill="#E5E5E5"/>
<g clip-path="url(#clip0)">
<rect width="1440" height="1024" fill="white"/>
<path d="M185.101 142.803C127.779 105.579 -4.85028 158.313 -64 189.333V479.287C-55.9765 502.47 -10.2615 552.07 108.411 565L285.86 537.082L418.527 467.532L437 349.493C421.14 320.106 376.096 265.054 322.806 279.944C269.515 294.833 261.79 256.76 264.589 235.863C261.977 220.353 242.422 180.027 185.101 142.803Z" fill="#E7C54D"/>
<path d="M191.613 538.57C212.216 477.772 307.275 513.237 352.229 538.57C399.217 544.337 509.863 552.41 576.549 538.57C659.907 521.27 731.065 512.002 792.059 596.65C853.052 681.298 724.288 731.345 653.807 707.866C583.326 684.387 621.955 778.303 461.339 828.351C300.724 878.398 262.095 769.653 249.218 681.916C236.342 594.178 165.861 614.568 191.613 538.57Z" fill="#3BE37E"/>
<g clip-path="url(#clip1)">
<path d="M698.387 579.003C698.387 602.067 568.761 687 406.872 687C244.983 687 117.549 596.489 117.549 573.425C117.549 550.361 244.983 603.465 406.872 603.465C568.761 603.465 698.387 555.918 698.387 579.003Z" fill="#3F3D56"/>
<path d="M699.995 569.797C699.995 570.104 699.995 570.41 699.995 570.722C699.64 580.308 694.189 589.841 684.243 596.573C673.692 603.704 659.543 607.458 645.017 609.854C642.745 610.228 640.463 610.566 638.186 610.894C637.024 611.05 635.867 611.205 634.715 611.351C602.378 615.51 569.361 616.305 536.498 617.069C502.123 617.901 467.716 618.722 433.303 619.148L426.478 619.226C374.264 619.777 322.072 619.315 270.05 616.414C253.905 615.52 237.601 614.335 221.594 612.339C219.312 612.065 217.037 611.765 214.769 611.439C193.54 608.461 172.942 603.892 154.176 596.474C149.745 594.742 145.412 592.781 141.194 590.6C129.406 584.471 119.466 576.721 114.546 567.208C111.684 561.631 110.506 555.37 111.149 549.16C111.36 546.903 111.755 544.665 112.333 542.47C113.812 537.038 116.069 531.839 119.036 527.026C126.7 514.332 138.211 502.954 148.136 491.034C169.323 465.631 183.122 433.532 163.569 407.494C157.96 400.014 149.85 393.459 145.28 385.636C142.836 381.41 141.311 376.734 140.801 371.902C140.553 369.681 140.459 367.446 140.52 365.212C140.737 359.996 141.402 354.807 142.51 349.701C145.694 333.732 151.644 316.516 170.018 306.556C182.559 299.757 198.545 297.647 214.753 298.047C217.028 298.099 219.303 298.203 221.578 298.359C227.793 298.759 233.971 299.497 239.936 300.438C276.79 306.203 310.805 318.247 345.143 329.121C371.287 337.397 398.365 345.137 426.462 348.828C428.733 349.124 431.005 349.4 433.287 349.639C439.873 350.346 446.518 350.813 453.216 351.006C486.551 351.941 525.443 344.872 547.58 326.512C568.963 308.765 609.065 307.336 638.17 317.935L638.606 318.096C640.796 318.914 642.919 319.794 644.974 320.737C666.421 330.613 680.788 347.528 682.816 365.228C683.069 367.426 683.13 369.642 682.996 371.85C682.999 371.873 682.999 371.896 682.996 371.918C681.605 393.693 663.433 411.98 644.98 430.299C642.698 432.56 640.41 434.821 638.149 437.098C632.163 443.117 626.362 449.184 621.33 455.427C619.033 458.256 616.92 461.225 615.004 464.316C613.243 467.166 611.739 470.161 610.509 473.267C609.211 476.482 608.377 479.859 608.03 483.299C607.513 488.231 608.433 493.206 610.684 497.646L610.732 497.75C615.657 507.315 626.08 514.093 638.149 520.102C640.373 521.215 642.66 522.296 644.98 523.367C658.068 529.417 672.169 535.037 682.89 542.506C685.78 544.475 688.477 546.703 690.946 549.16C691.952 550.179 692.901 551.25 693.791 552.367C697.706 557.212 699.884 563.183 699.99 569.36C699.995 569.516 699.995 569.656 699.995 569.797Z" fill="#FFBC4F"/>
<path d="M699.995 569.797C699.995 570.104 699.995 570.41 699.995 570.722C699.64 580.308 694.189 589.841 684.243 596.573C673.692 603.704 659.543 607.458 645.017 609.854C642.745 610.228 640.463 610.566 638.186 610.894C637.024 611.05 635.867 611.205 634.715 611.351C602.378 615.51 569.361 616.305 536.498 617.069C502.123 617.901 467.716 618.722 433.303 619.148L426.478 619.226C374.264 619.777 322.072 619.315 270.05 616.414C253.905 615.52 237.601 614.335 221.594 612.339C219.312 612.065 217.037 611.765 214.769 611.439C193.54 608.461 172.942 603.892 154.176 596.474C149.745 594.742 145.412 592.781 141.194 590.6C129.406 584.471 119.466 576.721 114.546 567.208C111.684 561.631 110.506 555.37 111.149 549.16C111.36 546.903 111.755 544.665 112.333 542.47C113.812 537.038 116.069 531.839 119.036 527.026C126.7 514.332 138.211 502.954 148.136 491.034C169.323 465.631 183.122 433.532 163.569 407.494C157.96 400.014 149.85 393.459 145.28 385.636C142.836 381.41 141.311 376.734 140.801 371.902C140.553 369.681 140.459 367.446 140.52 365.212C140.737 359.996 141.402 354.807 142.51 349.701C145.694 333.732 151.644 316.516 170.018 306.556C182.559 299.757 198.545 297.647 214.753 298.047C217.028 298.099 219.303 298.203 221.578 298.359C227.793 298.759 233.971 299.497 239.936 300.438C276.79 306.203 310.805 318.247 345.143 329.121C371.287 337.397 398.365 345.137 426.462 348.828C428.733 349.124 431.005 349.4 433.287 349.639C439.873 350.346 446.518 350.813 453.216 351.006C486.551 351.941 525.443 344.872 547.58 326.512C568.963 308.765 609.065 307.336 638.17 317.935L638.606 318.096C640.796 318.914 642.919 319.794 644.974 320.737C666.421 330.613 680.788 347.528 682.816 365.228C683.069 367.426 683.13 369.642 682.996 371.85C682.999 371.873 682.999 371.896 682.996 371.918C681.605 393.693 663.433 411.98 644.98 430.299C642.698 432.56 640.41 434.821 638.149 437.098C632.163 443.117 626.362 449.184 621.33 455.427C619.033 458.256 616.92 461.225 615.004 464.316C613.243 467.166 611.739 470.161 610.509 473.267C609.211 476.482 608.377 479.859 608.03 483.299C607.513 488.231 608.433 493.206 610.684 497.646L610.732 497.75C615.657 507.315 626.08 514.093 638.149 520.102C640.373 521.215 642.66 522.296 644.98 523.367C658.068 529.417 672.169 535.037 682.89 542.506C685.78 544.475 688.477 546.703 690.946 549.16C691.952 550.179 692.901 551.25 693.791 552.367C697.706 557.212 699.884 563.183 699.99 569.36C699.995 569.516 699.995 569.656 699.995 569.797Z" fill="url(#paint0_linear)"/>
<path d="M645 320.737V430.293C642.718 432.56 640.431 434.821 638.17 437.098V317.935L645 320.737Z" fill="#3F3D56"/>
<path d="M683.022 371.85C683.025 371.873 683.025 371.896 683.022 371.918H140.801C140.553 369.697 140.459 367.462 140.519 365.228H682.841C683.095 367.426 683.156 369.642 683.022 371.85V371.85Z" fill="#3F3D56"/>
<path d="M239.076 337.277C240.175 337.277 241.066 336.405 241.066 335.328C241.066 334.251 240.175 333.379 239.076 333.379C237.977 333.379 237.086 334.251 237.086 335.328C237.086 336.405 237.977 337.277 239.076 337.277Z" fill="#E7EFFD"/>
<path d="M175.335 333.374C176.434 333.374 177.325 332.501 177.325 331.424C177.325 330.348 176.434 329.475 175.335 329.475C174.236 329.475 173.345 330.348 173.345 331.424C173.345 332.501 174.236 333.374 175.335 333.374Z" fill="#E7EFFD"/>
<path d="M261.558 336.165C262.03 336.165 262.412 335.79 262.412 335.328C262.412 334.866 262.03 334.491 261.558 334.491C261.086 334.491 260.703 334.866 260.703 335.328C260.703 335.79 261.086 336.165 261.558 336.165Z" fill="#E7EFFD"/>
<path d="M197.53 334.216C198.002 334.216 198.385 333.841 198.385 333.379C198.385 332.917 198.002 332.542 197.53 332.542C197.058 332.542 196.676 332.917 196.676 333.379C196.676 333.841 197.058 334.216 197.53 334.216Z" fill="#E7EFFD"/>
<path d="M196.681 392.669C197.153 392.669 197.536 392.294 197.536 391.832C197.536 391.37 197.153 390.995 196.681 390.995C196.209 390.995 195.827 391.37 195.827 391.832C195.827 392.294 196.209 392.669 196.681 392.669Z" fill="#E7EFFD"/>
<path d="M590.786 348.495C591.258 348.495 591.641 348.12 591.641 347.658C591.641 347.196 591.258 346.821 590.786 346.821C590.314 346.821 589.932 347.196 589.932 347.658C589.932 348.12 590.314 348.495 590.786 348.495Z" fill="#E7EFFD"/>
<path d="M301.394 349.264C301.866 349.264 302.249 348.89 302.249 348.427C302.249 347.965 301.866 347.591 301.394 347.591C300.923 347.591 300.54 347.965 300.54 348.427C300.54 348.89 300.923 349.264 301.394 349.264Z" fill="#E7EFFD"/>
<path d="M548.673 347.591C549.145 347.591 549.527 347.216 549.527 346.754C549.527 346.291 549.145 345.917 548.673 345.917C548.201 345.917 547.818 346.291 547.818 346.754C547.818 347.216 548.201 347.591 548.673 347.591Z" fill="#E7EFFD"/>
<path d="M656.236 350.101C656.708 350.101 657.09 349.727 657.09 349.264C657.09 348.802 656.708 348.427 656.236 348.427C655.764 348.427 655.381 348.802 655.381 349.264C655.381 349.727 655.764 350.101 656.236 350.101Z" fill="#E7EFFD"/>
<path d="M699.995 569.797C699.995 570.104 699.995 570.41 699.995 570.722C699.724 580.38 694.263 590.012 684.243 596.791C673.692 603.923 659.542 607.676 645.016 610.072C642.745 610.447 640.463 610.784 638.186 611.112C637.023 611.268 635.866 611.424 634.715 611.569C626.754 612.609 618.75 613.404 610.72 614.07C599.947 614.964 589.12 615.582 578.282 616.04C564.366 616.638 550.424 616.975 536.498 617.313C509.277 617.968 482.034 618.623 454.765 619.075L445.09 619.231L433.286 619.387L426.461 619.465C383.472 619.912 340.546 619.684 297.695 617.968C294.843 617.857 291.997 617.736 289.156 617.604C282.787 617.331 276.418 617.014 270.049 616.653C257.285 615.946 244.42 615.052 231.694 613.727C228.318 613.38 224.957 612.997 221.61 612.578C219.328 612.304 217.052 612.004 214.784 611.678C212.258 611.332 209.743 610.954 207.237 610.545C188.662 607.572 170.728 603.268 154.191 596.708C149.757 594.967 145.419 593.001 141.193 590.818V499.33C143.55 496.653 145.89 493.976 148.141 491.268C150.847 488.014 153.448 484.661 155.836 481.22H207.211V450.213H297.701V518.382H445.09V464.321H615.136C613.409 467.079 611.919 469.974 610.683 472.976V473.267H610.487C609.189 476.482 608.355 479.859 608.008 483.299C607.491 488.231 608.411 493.206 610.662 497.646V497.865L610.71 497.968C615.635 507.533 626.059 514.312 638.127 520.321C640.351 521.433 642.639 522.514 644.958 523.585C657.913 529.573 671.871 535.146 682.55 542.506L682.868 542.725C685.68 544.635 688.31 546.789 690.728 549.16C690.808 549.233 690.877 549.306 690.946 549.378C691.951 550.398 692.901 551.468 693.79 552.586C697.657 557.372 699.832 563.259 699.989 569.36C699.995 569.516 699.995 569.656 699.995 569.797Z" fill="#FFBC4F"/>
<path opacity="0.3" d="M699.995 569.797C699.995 570.104 699.995 570.41 699.995 570.722C699.724 580.38 694.263 590.012 684.243 596.791C673.692 603.923 659.542 607.676 645.016 610.072C642.745 610.447 640.463 610.784 638.186 611.112C637.023 611.268 635.866 611.424 634.715 611.569C626.754 612.609 618.75 613.404 610.72 614.07C599.947 614.964 589.12 615.582 578.282 616.04C564.366 616.638 550.424 616.975 536.498 617.313C509.277 617.968 482.034 618.623 454.765 619.075L445.09 619.231L433.286 619.387L426.461 619.465C383.472 619.912 340.546 619.684 297.695 617.968C294.843 617.857 291.997 617.736 289.156 617.604C282.787 617.331 276.418 617.014 270.049 616.653C257.285 615.946 244.42 615.052 231.694 613.727C228.318 613.38 224.957 612.997 221.61 612.578C219.328 612.304 217.052 612.004 214.784 611.678C212.258 611.332 209.743 610.954 207.237 610.545C188.662 607.572 170.728 603.268 154.191 596.708C149.757 594.967 145.419 593.001 141.193 590.818V499.33C143.55 496.653 145.89 493.976 148.141 491.268C150.847 488.014 153.448 484.661 155.836 481.22H207.211V450.213H297.701V518.382H445.09V464.321H615.136C613.409 467.079 611.919 469.974 610.683 472.976V473.267H610.487C609.189 476.482 608.355 479.859 608.008 483.299C607.491 488.231 608.411 493.206 610.662 497.646V497.865L610.71 497.968C615.635 507.533 626.059 514.312 638.127 520.321C640.351 521.433 642.639 522.514 644.958 523.585C657.913 529.573 671.871 535.146 682.55 542.506L682.868 542.725C685.68 544.635 688.31 546.789 690.728 549.16C690.808 549.233 690.877 549.306 690.946 549.378C691.951 550.398 692.901 551.468 693.79 552.586C697.657 557.372 699.832 563.259 699.989 569.36C699.995 569.516 699.995 569.656 699.995 569.797Z" fill="black"/>
<path opacity="0.4" d="M173.249 493.862H158.071V503.894H173.249V493.862Z" fill="black"/>
<path opacity="0.4" d="M197.536 493.862H182.357V503.894H197.536V493.862Z" fill="black"/>
<path opacity="0.4" d="M476.398 473.241H461.219V483.273H476.398V473.241Z" fill="black"/>
<path opacity="0.4" d="M517.375 473.241H502.197V483.273H517.375V473.241Z" fill="black"/>
<path opacity="0.4" d="M561.384 473.241H546.205V483.273H561.384V473.241Z" fill="black"/>
<path opacity="0.4" d="M476.398 503.9H461.219V513.932H476.398V503.9Z" fill="black"/>
<path opacity="0.4" d="M517.375 503.9H502.197V513.932H517.375V503.9Z" fill="black"/>
<path d="M561.384 503.9H546.205V513.932H561.384V503.9Z" fill="#FFBC4F"/>
<path opacity="0.4" d="M476.398 534.553H461.219V544.586H476.398V534.553Z" fill="black"/>
<path opacity="0.4" d="M517.375 534.553H502.197V544.586H517.375V534.553Z" fill="black"/>
<path opacity="0.4" d="M561.384 534.553H546.205V544.586H561.384V534.553Z" fill="black"/>
<path opacity="0.4" d="M476.398 565.212H461.219V575.244H476.398V565.212Z" fill="black"/>
<path opacity="0.4" d="M517.375 565.212H502.197V575.244H517.375V565.212Z" fill="black"/>
<path opacity="0.4" d="M561.384 565.212H546.205V575.244H561.384V565.212Z" fill="black"/>
<path opacity="0.4" d="M476.398 595.871H461.219V605.903H476.398V595.871Z" fill="black"/>
<path opacity="0.4" d="M517.375 595.871H502.197V605.903H517.375V595.871Z" fill="black"/>
<path opacity="0.4" d="M561.384 595.871H546.205V605.903H561.384V595.871Z" fill="black"/>
<path opacity="0.4" d="M610.508 473.267C609.21 476.482 608.376 479.859 608.03 483.299H599.702V473.267H610.508Z" fill="black"/>
<path d="M614.881 503.9H599.702V513.932H614.881V503.9Z" fill="#FFBC4F"/>
<path opacity="0.4" d="M614.881 534.553H599.702V544.586H614.881V534.553Z" fill="black"/>
<path opacity="0.4" d="M614.881 565.212H599.702V575.244H614.881V565.212Z" fill="black"/>
<path opacity="0.4" d="M614.881 595.871H599.702V605.903H614.881V595.871Z" fill="black"/>
<path opacity="0.4" d="M257.482 461.534H242.303V471.567H257.482V461.534Z" fill="black"/>
<path d="M257.482 484.027H242.303V494.059H257.482V484.027Z" fill="#FFBC4F"/>
<path opacity="0.4" d="M257.482 506.514H242.303V516.547H257.482V506.514Z" fill="black"/>
<path opacity="0.4" d="M257.482 529.007H242.303V539.039H257.482V529.007Z" fill="black"/>
<path opacity="0.4" d="M257.482 551.494H242.303V561.526H257.482V551.494Z" fill="black"/>
<path opacity="0.4" d="M257.482 573.987H242.303V584.019H257.482V573.987Z" fill="black"/>
<path opacity="0.4" d="M257.482 596.474H242.303V606.506H257.482V596.474Z" fill="black"/>
<path opacity="0.4" d="M173.249 520.081H158.071V530.114H173.249V520.081Z" fill="black"/>
<path opacity="0.4" d="M197.536 520.081H182.357V530.114H197.536V520.081Z" fill="black"/>
<path opacity="0.4" d="M173.249 546.301H158.071V556.333H173.249V546.301Z" fill="black"/>
<path opacity="0.4" d="M197.536 546.301H182.357V556.333H197.536V546.301Z" fill="black"/>
<path opacity="0.4" d="M173.249 572.521H158.071V582.553H173.249V572.521Z" fill="black"/>
<path opacity="0.4" d="M197.536 572.521H182.357V582.553H197.536V572.521Z" fill="black"/>
<path opacity="0.4" d="M403.932 530.072H328.048V539.039H403.932V530.072Z" fill="black"/>
<path opacity="0.4" d="M403.932 558.683H328.048V567.65H403.932V558.683Z" fill="black"/>
<path opacity="0.4" d="M403.932 587.299H328.048V596.266H403.932V587.299Z" fill="black"/>
<path d="M221.578 298.359V612.328C219.296 612.055 217.021 611.755 214.753 611.429V298.047C217.029 298.088 219.301 298.203 221.578 298.359Z" fill="#3F3D56"/>
<path d="M433.286 349.628V619.159L426.461 619.237V348.812C428.733 349.114 431.008 349.386 433.286 349.628Z" fill="#3F3D56"/>
<path d="M690.946 549.16H111.149C111.359 546.903 111.755 544.665 112.332 542.47H682.91C685.797 544.448 688.487 546.688 690.946 549.16V549.16Z" fill="#3F3D56"/>
<path d="M638.17 520.081C640.394 521.194 642.681 522.275 645 523.346V609.854C642.729 610.228 640.447 610.566 638.17 610.894V520.081Z" fill="#3F3D56"/>
<path d="M290.031 417.459H288.726V416.18H288.492V417.459H287.187V417.688H288.492V418.967H288.726V417.688H290.031V417.459Z" fill="#E7EFFD"/>
<path d="M561.384 390.881H560.078V389.602H559.839V390.881H558.539V391.11H559.839V392.388H560.078V391.11H561.384V390.881Z" fill="#E7EFFD"/>
<path d="M320.957 385.709H319.652V384.43H319.413V385.709H318.112V385.943H319.413V387.216H319.652V385.943H320.957V385.709Z" fill="#E7EFFD"/>
<path d="M318.967 468.277C319.439 468.277 319.821 467.902 319.821 467.44C319.821 466.977 319.439 466.603 318.967 466.603C318.495 466.603 318.112 466.977 318.112 467.44C318.112 467.902 318.495 468.277 318.967 468.277Z" fill="#E7EFFD"/>
<path d="M513.835 393.506C514.307 393.506 514.69 393.131 514.69 392.669C514.69 392.207 514.307 391.832 513.835 391.832C513.364 391.832 512.981 392.207 512.981 392.669C512.981 393.131 513.364 393.506 513.835 393.506Z" fill="#E7EFFD"/>
<path d="M599.702 433.142C600.174 433.142 600.557 432.767 600.557 432.305C600.557 431.843 600.174 431.468 599.702 431.468C599.231 431.468 598.848 431.843 598.848 432.305C598.848 432.767 599.231 433.142 599.702 433.142Z" fill="#E7EFFD"/>
<path d="M465.226 440.321C465.698 440.321 466.08 439.946 466.08 439.484C466.08 439.022 465.698 438.647 465.226 438.647C464.754 438.647 464.371 439.022 464.371 439.484C464.371 439.946 464.754 440.321 465.226 440.321Z" fill="#E7EFFD"/>
<path d="M490.642 580.349C490.642 580.349 472.433 584.664 465.226 592.736C462.811 595.434 459.229 597.378 455.529 598.766V586.587C459.696 579.736 463.894 572.115 463.894 572.115C464.085 571.741 465.603 566.486 465.603 566.486C469.021 563.855 465.412 554.665 465.412 554.665C465.412 554.665 467.503 548.848 466.362 547.72C465.22 546.592 466.17 543.593 467.12 542.278C468.071 540.963 467.879 539.273 467.879 538.15C467.879 537.028 466.362 535.333 463.894 534.397C461.426 533.462 464.085 531.959 465.603 531.58C467.121 531.2 467.503 527.64 465.794 525.763C464.085 523.887 465.985 522.764 466.929 520.7C467.874 518.636 463.878 519.011 463.878 519.011V500.037C463.878 500.037 462.737 493.846 461.601 482.961C460.465 472.076 456.097 470.954 456.097 470.954C453.758 470.242 451.475 469.363 449.267 468.323C446.942 467.256 444.531 466.378 442.059 465.698C442.059 465.698 436.938 465.698 432.761 464.44C428.584 463.182 426.419 463.094 426.419 463.094L425.734 462.761C420.598 460.203 416.529 455.977 414.223 450.805C414.106 450.546 414 450.286 413.893 450.036C415.028 448.819 416.042 447.5 416.924 446.096V446.065C416.924 446.257 416.924 446.449 416.924 446.642C416.924 446.72 416.924 446.803 416.924 446.881C416.924 447.343 416.924 447.806 416.924 448.269V448.316C419.949 443.081 428.727 441.885 429.561 435.907C429.599 435.635 429.618 435.361 429.619 435.086V435.05C429.619 434.852 429.619 434.65 429.619 434.447C429.508 432.778 428.924 431.115 428.812 429.431C428.775 428.948 428.775 428.463 428.812 427.98V428.011C429.205 423.369 432.777 419.331 434.412 414.824C434.851 413.611 435.138 412.351 435.266 411.071V411.034C435.309 410.65 435.335 410.26 435.346 409.87C435.346 409.776 435.346 409.678 435.346 409.584C435.346 409.314 435.346 409.064 435.346 408.773C435.296 406.375 434.745 404.013 433.727 401.831C432.71 399.65 431.246 397.696 429.428 396.089C426.403 393.516 422.406 391.9 420.31 388.537C419.333 386.977 418.856 385.127 417.789 383.619C415.783 380.77 412.1 379.611 408.613 379.201C405.126 378.79 401.543 378.925 398.21 377.854C395.843 377.095 393.699 375.749 391.311 375.073C388.709 374.391 385.956 374.505 383.422 375.4C380.888 376.295 378.694 377.928 377.135 380.079C375.877 381.878 375.055 384.03 373.356 385.433C369.88 388.313 363.984 387.065 360.937 390.382C359.265 392.206 359.074 394.691 359.276 397.228C359.276 397.259 359.276 397.29 359.276 397.321C359.276 397.514 359.313 397.711 359.334 397.909C359.334 398.002 359.334 398.096 359.334 398.184C359.334 398.273 359.334 398.382 359.372 398.481C359.478 399.39 359.61 400.295 359.727 401.168C359.727 401.303 359.759 401.433 359.775 401.568L359.87 402.384C359.87 402.582 359.902 402.78 359.923 402.977C359.945 403.175 359.961 403.497 359.977 403.715C359.992 403.934 359.977 404.1 360.014 404.297C360.354 411.225 358.855 418.12 355.662 424.31C352.79 429.826 348.523 434.909 347.78 441.069C347.665 442.079 347.636 443.096 347.695 444.11C347.695 444.23 347.695 444.349 347.695 444.469C347.695 444.588 347.727 444.833 347.743 445.015C347.759 445.197 347.786 445.436 347.812 445.644C347.812 445.763 347.844 445.883 347.86 446.002C347.897 446.278 347.94 446.553 347.987 446.834L348.019 447.011C348.773 451.211 350.482 455.328 351.389 459.57C351.73 461.134 351.957 462.72 352.069 464.315C352.066 464.326 352.066 464.336 352.069 464.347C352.1 464.867 352.127 465.36 352.143 465.87C352.143 466.556 352.143 467.247 352.143 467.949C350.702 468.491 349.225 468.936 347.722 469.28C345.068 469.654 337.282 476.412 337.85 478.117C338.418 479.822 334.369 491.632 334.257 491.991L327.889 535.135C327.889 535.135 324.508 538.327 325.564 540.391C326.62 542.454 325.357 546.02 325.357 546.02C325.357 546.02 319.646 548.458 320.915 549.961C322.183 551.463 321.605 554.275 320.734 556.152C319.864 558.028 318.436 561.407 320.734 561.968C323.032 562.53 321.127 569.854 321.127 569.854C321.127 569.854 329.136 568.95 328.557 573.607C328.366 575.089 334.156 579.164 336.571 580.796V603.221C333.329 602.332 329.518 601.178 327.087 600.066C322.157 597.815 294.458 593.5 288.386 606.449C282.315 619.398 296.735 636.661 300.338 638.537C300.338 638.537 303.756 641.162 304.515 642.478C305.274 643.793 309.637 644.167 309.637 644.167C309.637 644.167 314.19 646.246 315.326 647.354C316.165 648.185 323.101 650.342 331.322 652.032C331.322 652.032 324.683 667.003 335.515 665.771C346.347 664.539 351.623 659.314 359.26 659.314C362.312 659.314 367.98 658.893 373.685 658.394C375.118 658.643 376.536 658.971 377.931 659.377C381.146 660.367 384.447 661.063 387.792 661.456C387.792 661.456 396.332 665.958 400.885 664.83C401.261 664.726 401.611 664.549 401.915 664.31H402.021C402.849 664.107 403.788 663.27 404.765 662.007C410.46 662.579 416.972 663.39 419.392 664.315C424.11 666.098 457.859 663.629 457.859 663.629C457.859 663.629 479.662 664.05 485.908 665.901C492.155 667.751 489.937 647.005 478.409 644.671C475.332 644.067 472.201 643.764 469.063 643.767C469.861 642.96 470.591 642.091 471.244 641.168C475.395 640.799 478.144 640.57 478.144 640.57C478.144 640.57 489.146 635.315 495.408 632.123C499.407 629.993 502.998 627.2 506.023 623.868C506.023 623.868 511.521 620.489 513.798 619.19C516.075 617.89 517.211 613.56 517.211 613.56C534.465 575.276 490.642 580.349 490.642 580.349ZM441.242 532.328C441.242 531.699 441.242 531.065 441.242 530.436C441.858 530.862 441.767 531.533 441.242 532.323V532.328ZM441.423 545.599C441.884 546.192 442.33 546.733 442.648 547.159C443.874 548.718 441.656 549.446 441.815 552.029C441.852 552.606 441.905 553.412 441.959 554.306C441.725 550.579 441.534 547.512 441.423 545.594V545.599Z" fill="url(#paint1_linear)"/>
<path d="M342.675 604.817C342.675 604.817 332.06 602.4 327.119 600.17C322.178 597.94 294.49 593.667 288.418 606.491C282.347 619.315 296.767 636.401 300.37 638.262C303.974 640.123 339.071 614.657 339.071 614.657L366.754 626.093L372.061 608.346L342.675 604.817Z" fill="#65617D"/>
<path d="M455.354 608.346H373.935C363.139 608.346 354.388 616.918 354.388 627.491V630.262C354.388 640.835 363.139 649.407 373.935 649.407H455.354C466.15 649.407 474.901 640.835 474.901 630.262V627.491C474.901 616.918 466.15 608.346 455.354 608.346Z" fill="#65617D"/>
<path opacity="0.1" d="M474.901 628.874C474.905 632.913 473.69 636.862 471.409 640.227C470.633 641.367 469.744 642.429 468.755 643.398C466.811 645.307 464.5 646.822 461.956 647.854C459.412 648.886 456.685 649.416 453.932 649.412H375.352C369.792 649.412 364.46 647.249 360.528 643.398C356.597 639.547 354.388 634.325 354.388 628.879C354.388 623.434 356.597 618.211 360.528 614.36C364.46 610.51 369.792 608.346 375.352 608.346H453.937C459.496 608.346 464.828 610.509 468.759 614.358C472.69 618.208 474.9 623.429 474.901 628.874V628.874Z" fill="black"/>
<path d="M409.287 630.075C409.287 630.075 397.202 633.116 387.341 632.981C377.48 632.845 331.354 651.616 331.354 651.616C331.354 651.616 324.715 666.441 335.547 665.214C346.379 663.988 351.655 658.841 359.292 658.841C366.929 658.841 390.955 656.242 390.955 656.242L414.074 639.515L409.287 630.075Z" fill="#FBBEBE"/>
<path d="M416.85 490.176L395.175 494.361L393.768 494.636C393.768 494.636 376.631 490.176 376.063 489.802C375.495 489.428 359.939 468.9 359.939 468.9C359.939 468.9 367.805 468.983 373.983 465.495C374.205 465.371 374.423 465.236 374.641 465.106C377.357 463.501 379.421 461.023 380.479 458.093C380.59 457.787 380.686 457.47 380.776 457.137C381.434 454.652 381.476 451.642 380.595 447.998C378.473 439.333 383.355 436.947 389.825 437.155C399.171 437.457 411.893 443.169 411.893 443.169C412.057 446.085 412.734 448.952 413.893 451.642C413.994 451.892 414.106 452.162 414.223 452.401C416.543 457.532 420.613 461.712 425.734 464.227L426.419 464.56C427.109 464.882 427.836 465.189 428.589 465.464C445.116 471.598 416.85 490.176 416.85 490.176Z" fill="#FBBEBE"/>
<path opacity="0.1" d="M414.244 452.401C410.122 456.972 404.53 460.027 398.394 461.062C392.258 462.097 385.945 461.05 380.5 458.093C381.434 455.432 381.609 452.121 380.617 447.998C375.495 426.816 411.93 443.169 411.93 443.169C412.109 446.361 412.894 449.491 414.244 452.401V452.401Z" fill="black"/>
<path d="M421.085 433.584C421.094 438.59 419.659 443.496 416.945 447.739C416.062 449.13 415.047 450.437 413.915 451.642C409.134 456.774 402.494 459.871 395.413 460.271C394.883 460.308 394.315 460.323 393.763 460.323C388.36 460.323 383.079 458.754 378.587 455.814C374.094 452.874 370.593 448.696 368.526 443.807C366.458 438.918 365.917 433.539 366.971 428.349C368.025 423.159 370.627 418.391 374.447 414.65C378.267 410.908 383.135 408.36 388.434 407.327C393.733 406.295 399.225 406.825 404.217 408.85C409.208 410.875 413.474 414.304 416.476 418.704C419.478 423.104 421.08 428.277 421.08 433.568L421.085 433.584Z" fill="#FBBEBE"/>
<path opacity="0.1" d="M416.85 490.176L395.175 494.361L393.768 494.636C393.768 494.636 376.631 490.176 376.063 489.802C375.495 489.428 359.939 468.9 359.939 468.9C359.939 468.9 367.805 468.983 373.983 465.495C374.205 465.371 374.423 465.236 374.641 465.106C376.604 467.185 383.032 473.064 393.131 473.022C394.428 473.023 395.723 472.931 397.006 472.747C400.052 472.29 403.125 471.993 406.193 471.707C412.068 471.104 421.053 469.358 425.771 464.274L426.456 464.607C427.146 464.929 427.873 465.236 428.627 465.511C445.116 471.598 416.85 490.176 416.85 490.176Z" fill="black"/>
<path d="M441.322 544.43C441.507 548.521 444.549 594.597 444.549 594.597H349.882L350.524 565.586L351.055 542.382L351.225 534.766L351.984 508.386L349.24 506.015L334.326 493.145C334.438 492.801 338.482 481.059 337.919 479.406C337.357 477.753 345.132 471.047 347.791 470.673C349.302 470.329 350.788 469.886 352.238 469.347C356.713 467.788 362.683 465.542 363.341 465.896C364.27 466.384 373.579 465.537 373.956 465.501C373.956 465.501 380.824 474.197 393.094 474.145C394.386 474.139 395.676 474.038 396.953 473.844C399.999 473.386 403.072 473.09 406.14 472.778C412.312 472.149 421.908 470.252 426.403 464.565C426.403 464.565 428.574 464.653 432.745 465.896C436.917 467.138 442.043 467.143 442.043 467.143C444.514 467.816 446.924 468.686 449.251 469.742C451.46 470.77 453.743 471.639 456.081 472.341C456.081 472.341 460.444 473.454 461.585 484.23C462.726 495.006 463.878 501.139 463.878 501.139L441.322 520.274C441.322 520.274 441.136 540.323 441.322 544.43Z" fill="#FFBC4F"/>
<path d="M334.332 576.575L337.649 581.779L350.073 586.067L358.613 570.816L350.742 565.612L338.126 560.783L330.919 564.869L334.332 576.575Z" fill="#FBBEBE"/>
<path d="M440.372 602.213C440.372 602.213 458.013 600.913 465.226 592.923C472.438 584.934 490.643 580.661 490.643 580.661C490.643 580.661 534.465 575.645 517.179 613.55C517.179 613.55 516.043 617.823 513.767 619.122C511.49 620.422 505.991 623.769 505.991 623.769L438.679 618.01L440.372 602.213Z" fill="#65617D"/>
<path opacity="0.1" d="M474.901 628.874C474.905 632.913 473.69 636.862 471.409 640.227C460.083 641.209 435.001 643.517 429.752 644.952C423.303 646.704 410.253 643.652 408.825 643.309L408.692 643.278C408.692 643.278 406.177 635.803 404.977 631.021C404.446 628.848 404.165 627.231 404.515 627.112C405.657 626.743 416.091 623.951 415.9 625.552C415.709 627.153 447.213 613.565 447.213 613.565L448.179 625.459C451.379 629.046 474.901 623.712 474.901 628.874Z" fill="black"/>
<path d="M507.339 618.935L506.013 623.769C502.982 627.072 499.391 629.837 495.398 631.941C489.135 635.101 478.133 640.305 478.133 640.305C478.133 640.305 437.729 643.647 430.898 645.503C424.068 647.359 409.839 643.829 409.839 643.829C409.839 643.829 404.531 628.037 405.667 627.663C406.803 627.289 417.237 624.508 417.051 626.103C416.866 627.699 448.364 614.116 448.364 614.116L507.339 618.935Z" fill="#65617D"/>
<path d="M394.84 660.593C394.84 660.593 414.7 661.95 419.424 663.712C424.147 665.474 457.891 663.036 457.891 663.036C457.891 663.036 479.694 663.452 485.94 665.282C492.187 667.112 489.968 646.569 478.441 644.266C466.914 641.963 450.668 645.352 450.668 645.352C450.668 645.352 432.336 643.039 430.113 642.753C427.889 642.467 413.246 642.883 413.246 642.883L394.84 660.593Z" fill="#FBBEBE"/>
<path opacity="0.1" d="M316.796 609.313C316.796 609.313 343.046 611.627 350.264 615.842L316.796 609.313Z" fill="black"/>
<path opacity="0.1" d="M480.527 592.45C480.527 592.45 459.972 597.347 451.915 604.552L480.527 592.45Z" fill="black"/>
<path opacity="0.1" d="M318.325 603.465C318.744 603.6 330.41 605.098 330.128 606.184C329.847 607.27 318.325 603.465 318.325 603.465Z" fill="black"/>
<path opacity="0.1" d="M299.993 632.128L301.511 637.706C301.511 637.706 304.924 640.305 305.683 641.604C306.442 642.904 310.804 643.278 310.804 643.278C310.804 643.278 315.358 645.321 316.499 646.433C317.64 647.546 329.964 651.081 341.539 652.567C353.114 654.054 374.545 656.84 379.099 658.327C382.316 659.304 385.619 659.988 388.965 660.37C388.965 660.37 397.499 664.83 402.053 663.717C406.607 662.605 414.382 642.348 414.382 642.348C414.382 642.348 384.411 635.476 383.461 633.246C382.511 631.016 353.677 620.614 353.677 620.614L336.603 621.009L299.993 632.128Z" fill="black"/>
<path d="M298.852 632.684L300.37 638.262C300.37 638.262 303.788 640.861 304.547 642.161C305.306 643.46 309.669 643.834 309.669 643.834C309.669 643.834 314.222 645.877 315.358 646.995C316.494 648.112 328.828 651.637 340.398 653.123C351.968 654.61 373.409 657.396 377.963 658.883C381.179 659.857 384.48 660.539 387.824 660.921C387.824 660.921 396.363 665.376 400.917 664.263C405.471 663.151 413.246 642.893 413.246 642.893C413.246 642.893 383.27 636.022 382.326 633.791C381.381 631.561 339.071 614.657 339.071 614.657L325.803 611.684L298.852 632.684Z" fill="#65617D"/>
<path d="M337.643 491.289L334.326 493.15L327.958 535.884C327.958 535.884 324.577 539.044 325.633 541.082C326.689 543.12 325.426 546.655 325.426 546.655C325.426 546.655 319.715 549.072 320.984 550.558C322.252 552.045 321.674 554.831 320.803 556.687C319.933 558.543 318.505 561.885 320.803 562.447C323.101 563.008 321.196 570.244 321.196 570.244C321.196 570.244 329.205 569.35 328.626 573.955C328.387 575.816 337.681 581.753 337.681 581.753C337.681 581.753 327.119 562.987 350.779 565.586L352.812 555.008C352.812 555.008 354.844 549.051 352.812 547.211C350.779 545.371 353.268 536.529 353.268 536.529L353.714 498.161L337.643 491.289Z" fill="#FFBC4F"/>
<path opacity="0.1" d="M332.49 546.478C332.909 547.159 345.684 548.557 346.517 550.777C347.35 552.996 332.49 546.478 332.49 546.478Z" fill="black"/>
<path opacity="0.1" d="M328.462 557.087C328.462 557.087 330.197 551.78 334.3 552.731C338.402 553.682 328.462 557.087 328.462 557.087Z" fill="black"/>
<path opacity="0.1" d="M326.243 564.838C326.243 564.838 329.295 557.763 333.461 558.309C337.627 558.855 326.243 564.838 326.243 564.838Z" fill="black"/>
<path d="M465.226 564.682L463.894 572.479C463.894 572.479 450.238 597.009 447.77 597.378C445.302 597.747 431.848 581.03 431.848 581.03L428.244 564.677L442.431 562.041L448.731 555.944C448.731 555.944 464.653 557.436 465.226 564.682Z" fill="#FBBEBE"/>
<path d="M458.772 497.61L463.894 501.139V519.905C463.894 519.905 467.879 519.53 466.929 521.579C465.979 523.627 464.085 524.734 465.794 526.595C467.503 528.456 467.121 531.98 465.603 532.354C464.085 532.729 461.431 534.21 463.894 535.141C466.356 536.071 467.879 537.74 467.879 538.857C467.879 539.975 468.071 541.643 467.121 542.943C466.171 544.243 465.226 547.216 466.362 548.334C467.497 549.451 465.412 555.206 465.412 555.206C465.412 555.206 469.021 564.313 465.603 566.912C465.603 566.912 464.085 572.11 463.894 572.484C463.894 572.484 466.287 554.4 442.42 562.046C442.42 562.046 441.98 555.154 441.815 552.601C441.651 550.049 443.875 549.3 442.649 547.777C441.423 546.254 438.355 542.756 439.804 541.831C441.253 540.905 440.754 539.232 440.181 537.927C439.607 536.622 437.607 536.627 439.422 535.047C441.237 533.467 442.314 531.985 441.247 531.242C440.181 530.499 438.328 528.076 439.804 526.964C441.279 525.851 441.322 509.685 441.322 509.685C441.322 509.685 447.393 485.903 458.772 497.61Z" fill="#FFBC4F"/>
<path opacity="0.1" d="M456.363 529.579C456.363 529.579 463.655 527.64 463.894 529.579C464.133 531.517 456.363 529.579 456.363 529.579Z" fill="black"/>
<path opacity="0.1" d="M448.168 534.917C448.168 534.917 458.167 532.469 459.414 534.371C460.661 536.274 448.168 534.917 448.168 534.917Z" fill="black"/>
<path opacity="0.1" d="M445.944 540.084C445.944 540.084 460.943 538.041 461.914 541.035C462.885 544.029 445.944 540.084 445.944 540.084Z" fill="black"/>
<path opacity="0.1" d="M448.168 546.478C448.725 546.613 462.609 547.564 462.885 550.148C463.161 552.731 448.168 546.478 448.168 546.478Z" fill="black"/>
<path d="M449.978 554.852H342.165C339.096 554.852 336.608 557.289 336.608 560.295V615.567C336.608 618.573 339.096 621.009 342.165 621.009H449.978C453.047 621.009 455.535 618.573 455.535 615.567V560.295C455.535 557.289 453.047 554.852 449.978 554.852Z" fill="#3F3D56"/>
<path d="M396.072 592.227C398.493 592.227 400.455 590.305 400.455 587.933C400.455 585.562 398.493 583.64 396.072 583.64C393.65 583.64 391.688 585.562 391.688 587.933C391.688 590.305 393.65 592.227 396.072 592.227Z" fill="#E7EFFD"/>
<path opacity="0.1" d="M356.521 514.301C356.521 514.301 367.922 522.837 376.737 516.334C376.737 516.334 361.834 517.659 356.521 514.301Z" fill="black"/>
<path opacity="0.1" d="M414.244 516.599C414.244 516.599 425.639 525.129 434.454 518.626C434.454 518.626 419.556 519.957 414.244 516.599Z" fill="black"/>
<path opacity="0.1" d="M421.085 433.584C421.094 438.59 419.659 443.496 416.945 447.739C416.717 440.29 414.928 432.835 410.789 426.613C406.999 420.895 395.477 410.92 387.559 413.701C386.73 413.998 385.985 414.483 385.384 415.115C384.783 415.747 384.342 416.509 384.098 417.34C383.313 420.261 385.611 421.498 387.086 423.801C389.588 427.791 390.566 432.521 389.846 437.15C389.746 437.773 389.613 438.391 389.448 439C388.201 443.585 385.345 448.83 388.291 452.588C390.345 455.188 394.761 456.113 395.36 459.346C395.415 459.651 395.433 459.962 395.413 460.271C395.275 462.46 393.37 464.388 392.537 466.535C391.56 469.067 392.112 471.583 393.126 474.124C394.442 477.441 396.544 480.794 397.053 484.297C397.563 487.801 396.464 491.055 395.169 494.345C393.943 497.464 392.516 500.557 392.038 503.806C391.12 509.981 393.434 517.124 389.464 522C389.06 522.589 388.438 523.002 387.728 523.148C385.186 523.408 385.606 518.933 383.573 517.43C383.79 520.029 383.997 522.743 383.042 525.176C382.087 527.608 379.571 529.677 376.939 529.267L376.031 523.429C374.24 525.156 372.084 526.478 369.715 527.302C370.648 521.094 372.893 515.145 376.307 509.836C369.625 512.986 365.73 519.806 362.253 526.221C360.088 530.228 357.843 534.605 358.602 539.081C358.91 540.905 359.711 542.642 359.886 544.476C360.061 546.311 359.382 548.458 357.636 549.155C356.113 549.763 354.335 549.035 353.236 547.819L353.045 547.595C352.939 547.46 352.838 547.32 352.743 547.18C352.553 546.897 352.384 546.602 352.238 546.296C351.764 545.197 351.408 544.052 351.177 542.881L351.06 542.361C349.293 534.766 347.701 526.933 348.996 519.25C349.473 516.422 350.344 513.615 350.238 510.746C350.158 509.128 349.821 507.532 349.24 506.015C347.69 501.763 344.707 497.859 343.009 493.576C342.991 493.547 342.976 493.515 342.967 493.482C342.075 491.216 341.634 488.383 343.285 486.564C344.134 485.623 345.408 485.15 346.469 484.484C349.771 482.379 351.246 478.382 351.856 474.566C352.131 472.847 352.269 471.109 352.27 469.368C356.744 467.809 362.715 465.563 363.373 465.917C364.302 466.405 373.611 465.558 373.988 465.521C376.822 463.92 379.295 461.566 380.505 458.119C380.617 457.813 380.712 457.495 380.802 457.163C376.553 454.917 372.988 451.609 370.469 447.575C367.95 443.54 366.568 438.924 366.463 434.196C366.359 429.469 367.535 424.798 369.873 420.661C372.211 416.523 375.627 413.067 379.773 410.643C383.919 408.219 388.646 406.915 393.474 406.863C398.302 406.811 403.058 408.014 407.257 410.348C411.456 412.682 414.948 416.064 417.378 420.151C419.808 424.237 421.089 428.881 421.09 433.61L421.085 433.584Z" fill="black"/>
<path d="M389.448 437.888C388.196 442.473 385.345 447.718 388.296 451.481C390.35 454.08 394.766 455 395.355 458.239C395.827 460.838 393.487 462.98 392.542 465.423C390.292 471.26 396.162 476.999 397.053 483.18C398.025 489.885 393.036 495.993 392.043 502.694C391.125 508.869 393.439 516.006 389.469 520.887C389.068 521.479 388.444 521.892 387.734 522.036C385.192 522.301 385.611 517.826 383.578 516.318C383.796 518.917 384.003 521.631 383.047 524.063C382.092 526.496 379.576 528.56 376.944 528.154L376.036 522.312C374.246 524.039 372.09 525.361 369.721 526.184C370.653 519.979 372.896 514.032 376.307 508.723C369.625 511.874 365.735 518.694 362.259 525.103C360.088 529.111 357.848 533.493 358.602 537.968C358.91 539.793 359.711 541.524 359.886 543.364C360.061 545.204 359.382 547.341 357.636 548.042C356.044 548.692 354.117 547.829 353.045 546.483C351.973 545.137 351.559 543.421 351.172 541.763C349.357 534.007 347.664 526.002 348.985 518.153C349.463 515.32 350.333 512.513 350.227 509.649C349.999 503.375 345.27 498.213 342.967 492.375C342.07 490.104 341.634 487.276 343.285 485.456C344.134 484.516 345.408 484.043 346.469 483.377C349.765 481.267 351.246 477.275 351.851 473.459C352.503 469.335 352.383 465.128 351.495 461.046C350.163 454.938 347.106 448.97 347.865 442.769C348.608 436.666 352.875 431.635 355.747 426.171C359.44 419.1 360.858 411.098 359.812 403.221C359.318 399.557 358.453 395.315 360.99 392.576C364.037 389.29 369.933 390.527 373.409 387.679C375.108 386.291 375.93 384.154 377.188 382.377C378.76 380.241 380.957 378.623 383.489 377.738C386.02 376.852 388.766 376.741 391.364 377.418C393.752 378.088 395.896 379.419 398.263 380.173C401.596 381.212 405.163 381.098 408.666 381.509C412.169 381.919 415.836 383.068 417.842 385.88C418.904 387.377 419.387 389.202 420.363 390.751C422.459 394.078 426.456 395.679 429.481 398.231C432.075 400.497 433.931 403.46 434.816 406.752C435.702 410.044 435.577 413.519 434.459 416.742C432.655 421.665 428.478 426.021 428.834 431.24C428.977 433.386 429.895 435.492 429.608 437.618C428.77 443.538 419.997 444.718 416.966 449.906C417.211 441.402 415.544 432.643 410.805 425.516C407.015 419.798 395.493 409.818 387.575 412.599C386.747 412.898 386.003 413.383 385.402 414.015C384.801 414.647 384.36 415.408 384.114 416.238C383.329 419.154 385.627 420.396 387.102 422.699C388.515 424.947 389.45 427.45 389.853 430.06C390.256 432.669 390.119 435.332 389.448 437.888Z" fill="#3F3D56"/>
<g opacity="0.2">
<path opacity="0.2" d="M352.238 467.351C352.305 464.68 352.05 462.011 351.48 459.398C350.349 454.2 347.982 449.111 347.764 443.892C347.457 449.703 350.232 455.328 351.48 461.046C351.932 463.12 352.186 465.231 352.238 467.351V467.351Z" fill="black"/>
<path opacity="0.2" d="M374.848 509.534C375.309 508.708 375.787 507.887 376.302 507.086C369.625 510.236 365.73 517.056 362.253 523.471C360.242 527.177 358.177 531.211 358.485 535.338C358.74 531.798 360.518 528.347 362.253 525.139C365.47 519.208 369.047 512.939 374.848 509.534Z" fill="black"/>
<path opacity="0.2" d="M359.854 543.151C359.653 544.554 358.942 545.885 357.636 546.41C356.044 547.055 354.117 546.197 353.05 544.851C351.984 543.504 351.559 541.794 351.172 540.131C349.877 534.59 348.645 528.913 348.518 523.263C348.391 529.464 349.739 535.712 351.172 541.805C351.559 543.463 351.978 545.183 353.05 546.525C354.123 547.866 356.028 548.729 357.636 548.084C359.382 547.382 360.067 545.246 359.892 543.406C359.854 543.317 359.854 543.234 359.854 543.151Z" fill="black"/>
<path opacity="0.2" d="M390.064 432.305C390.002 433.64 389.795 434.964 389.448 436.256C388.525 439.65 386.72 443.414 387.044 446.652C387.299 443.824 388.678 440.747 389.448 437.914C389.94 436.085 390.148 434.194 390.064 432.305Z" fill="black"/>
<path opacity="0.2" d="M360.125 407.499C360.17 405.517 360.06 403.534 359.796 401.568C359.6 400.123 359.35 398.585 359.265 397.082C359.143 399.084 359.515 401.241 359.796 403.242C359.985 404.654 360.095 406.076 360.125 407.499V407.499Z" fill="black"/>
<path opacity="0.2" d="M395.36 458.291C395.36 458.244 395.36 458.208 395.323 458.161C394.92 460.095 393.296 461.862 392.547 463.806C392.103 464.966 391.943 466.213 392.08 467.445C392.145 466.772 392.302 466.111 392.547 465.48C393.487 463.032 395.827 460.869 395.36 458.291Z" fill="black"/>
<path opacity="0.2" d="M350.227 508.017C349.993 501.742 345.27 496.581 342.961 490.743C342.593 489.824 342.343 488.864 342.218 487.884C342.09 489.431 342.345 490.986 342.961 492.417C345.233 498.176 349.829 503.245 350.2 509.378C350.227 508.926 350.243 508.469 350.227 508.017Z" fill="black"/>
<path opacity="0.2" d="M410.805 423.884C407.01 418.166 395.493 408.186 387.575 410.967C386.746 411.265 386.001 411.75 385.399 412.382C384.797 413.014 384.355 413.776 384.109 414.605C383.922 415.242 383.902 415.914 384.051 416.56C384.051 416.466 384.082 416.373 384.109 416.279C384.355 415.449 384.796 414.687 385.398 414.055C386.001 413.423 386.746 412.938 387.575 412.64C395.493 409.859 407.01 419.856 410.805 425.558C415.093 432.014 416.86 439.806 416.977 447.536C417.089 439.245 415.395 430.787 410.805 423.884Z" fill="black"/>
<path opacity="0.2" d="M429.593 435.97C428.759 441.875 420.039 443.065 416.977 448.222C416.977 448.789 416.977 449.36 416.977 449.927C420.002 444.729 428.78 443.559 429.614 437.638C429.688 437.057 429.688 436.468 429.614 435.887C429.609 435.915 429.602 435.943 429.593 435.97V435.97Z" fill="black"/>
<path opacity="0.2" d="M434.443 415.089C432.639 420.017 428.462 424.368 428.818 429.592C428.818 429.664 428.818 429.742 428.818 429.82C429.21 425.22 432.782 421.228 434.417 416.763C435.153 414.723 435.469 412.56 435.346 410.4C435.288 411.999 434.983 413.579 434.443 415.089V415.089Z" fill="black"/>
<path opacity="0.2" d="M389.469 519.265C389.068 519.859 388.445 520.273 387.734 520.419C385.192 520.684 385.611 516.209 383.578 514.701C383.631 515.294 383.679 515.892 383.711 516.49C385.6 518.091 385.25 522.348 387.734 522.088C388.086 522.018 388.421 521.88 388.718 521.683C389.016 521.486 389.271 521.233 389.469 520.939C391.735 518.153 391.953 514.634 391.895 510.979C391.836 514.026 391.385 516.931 389.469 519.265Z" fill="black"/>
<path opacity="0.2" d="M383.042 522.447C382.076 524.885 379.571 526.948 376.933 526.538C376.633 524.594 376.332 522.646 376.031 520.695C374.318 522.342 372.274 523.622 370.029 524.453C369.912 525.046 369.8 525.644 369.71 526.241C372.081 525.418 374.238 524.097 376.031 522.369C376.332 524.32 376.633 526.267 376.933 528.211C379.587 528.617 382.076 526.558 383.042 524.12C383.635 522.422 383.872 520.624 383.737 518.834C383.71 520.067 383.475 521.288 383.042 522.447V522.447Z" fill="black"/>
<path opacity="0.2" d="M392.043 501.072C391.839 502.642 391.762 504.225 391.815 505.807C391.824 504.783 391.9 503.76 392.043 502.746C392.993 496.357 397.563 490.509 397.149 484.173C396.783 489.901 392.908 495.25 392.043 501.072Z" fill="black"/>
</g>
<path d="M549.856 589.706C549.856 589.706 546.253 606.148 562.291 608.097L563.284 606.272C563.284 606.272 550.865 594.836 549.856 589.706Z" fill="#FFBC4F"/>
<path d="M568.4 606.163L564.685 606.938L564.313 607.016C564.313 607.016 554.362 599.104 554.489 581.441C555.821 584.043 557.412 586.511 559.24 588.807C563.172 593.916 567.657 600.742 568.4 606.163Z" fill="#FFBC4F"/>
<path d="M569.663 607.858C569.369 608.044 569.036 608.163 568.689 608.207C568.342 608.251 567.99 608.219 567.657 608.113C558.104 605.919 561.315 575.364 561.315 575.364C561.845 575.608 562.424 579.523 564.626 584.513C568.49 593.345 572.736 605.643 569.663 607.858Z" fill="#FFBC4F"/>
<path d="M590.903 589.706C590.903 589.706 591.524 606.148 575.485 608.097L574.493 606.272C574.493 606.272 589.91 594.836 590.903 589.706Z" fill="#FFBC4F"/>
<path d="M586.307 581.441C586.424 599.114 573.495 607.016 573.495 607.016L573.123 606.938L569.408 606.163C570.146 600.742 574.641 593.916 578.579 588.807C580.807 586.024 583.406 583.546 586.307 581.441V581.441Z" fill="#FFBC4F"/>
<path d="M573.065 606.257C572.491 606.942 571.765 607.49 570.942 607.858C570.691 607.968 570.43 608.054 570.162 608.113C567.806 608.632 566.978 606.99 567.116 604.162C567.338 599.125 570.571 590.392 573.484 583.889C575.575 579.179 578.988 575.614 579.498 575.38C579.466 575.354 579.322 599.156 573.065 606.257Z" fill="#FFBC4F"/>
<path d="M570.39 564.635C570.39 564.635 559.696 601.781 568.899 607.385C578.102 612.988 572.752 567.925 570.39 564.635Z" fill="#FFBC4F"/>
<path opacity="0.1" d="M549.856 589.706C549.856 589.706 546.253 606.148 562.291 608.097L563.284 606.272C563.284 606.272 550.865 594.836 549.856 589.706Z" fill="black"/>
<path opacity="0.1" d="M568.4 606.163L564.685 606.938L564.313 607.016C564.313 607.016 554.362 599.104 554.489 581.441C555.821 584.043 557.412 586.511 559.24 588.807C563.172 593.916 567.657 600.742 568.4 606.163Z" fill="black"/>
<path opacity="0.1" d="M569.663 607.858C569.369 608.044 569.036 608.163 568.689 608.207C568.342 608.251 567.99 608.219 567.657 608.113C558.104 605.919 561.315 575.364 561.315 575.364C561.845 575.608 562.424 579.523 564.626 584.513C568.49 593.345 572.736 605.643 569.663 607.858Z" fill="black"/>
<path opacity="0.1" d="M590.903 589.706C590.903 589.706 591.524 606.148 575.485 608.097L574.493 606.272C574.493 606.272 589.91 594.836 590.903 589.706Z" fill="black"/>
<path opacity="0.1" d="M586.307 581.441C586.424 599.114 573.495 607.016 573.495 607.016L573.123 606.938L569.408 606.163C570.146 600.742 574.641 593.916 578.579 588.807C580.807 586.024 583.406 583.546 586.307 581.441V581.441Z" fill="black"/>
<path opacity="0.1" d="M573.065 606.257C572.491 606.942 571.765 607.49 570.942 607.858C570.691 607.968 570.43 608.054 570.162 608.113C567.806 608.632 566.978 606.99 567.116 604.162C567.338 599.125 570.571 590.392 573.484 583.889C575.575 579.179 578.988 575.614 579.498 575.38C579.466 575.354 579.322 599.156 573.065 606.257Z" fill="black"/>
<path opacity="0.1" d="M570.39 564.635C570.39 564.635 559.696 601.781 568.899 607.385C578.102 612.988 572.752 567.925 570.39 564.635Z" fill="black"/>
<path d="M549.856 589.706C549.856 589.706 547.733 606.148 563.783 608.097L564.775 606.272C564.775 606.272 550.865 594.836 549.856 589.706Z" fill="#FFBC4F"/>
<path d="M569.891 606.163L566.176 606.938L565.799 607.016C565.799 607.016 554.357 599.104 554.484 581.441C554.484 581.441 557.414 584.518 560.726 588.807C564.664 593.916 569.148 600.742 569.891 606.163Z" fill="#FFBC4F"/>
<path opacity="0.1" d="M569.891 606.163L566.176 606.938C562.636 603.897 561.235 595.959 560.726 588.807C564.664 593.916 569.148 600.742 569.891 606.163Z" fill="black"/>
<path d="M571.154 607.858C570.86 608.044 570.528 608.163 570.181 608.207C569.834 608.251 569.481 608.219 569.148 608.113C559.569 605.919 561.315 575.364 561.315 575.364C561.845 575.608 563.915 579.523 566.091 584.513C569.982 593.345 574.227 605.643 571.154 607.858Z" fill="#FFBC4F"/>
<path d="M590.903 589.706C590.903 589.706 593.026 606.148 576.977 608.097L575.984 606.272C575.984 606.272 589.91 594.836 590.903 589.706Z" fill="#FFBC4F"/>
<path d="M586.307 581.441C586.423 599.114 574.986 607.016 574.986 607.016L574.615 606.938L570.9 606.163C571.643 600.742 576.133 593.916 580.071 588.807C583.372 584.508 586.307 581.441 586.307 581.441Z" fill="#FFBC4F"/>
<path opacity="0.1" d="M580.055 588.807C579.577 595.481 578.33 602.842 575.305 606.257C575.094 606.502 574.863 606.729 574.615 606.938L570.9 606.163C571.616 600.742 576.117 593.916 580.055 588.807Z" fill="black"/>
<path d="M574.556 606.257C573.983 606.942 573.256 607.49 572.433 607.858C572.181 607.968 571.918 608.054 571.648 608.113C569.292 608.632 568.464 606.99 568.602 604.162C568.83 599.125 572.057 590.392 574.97 583.889C577.061 579.179 578.983 575.614 579.492 575.38C579.466 575.354 580.814 599.156 574.556 606.257Z" fill="#FFBC4F"/>
<path opacity="0.1" d="M571.154 607.858C570.613 607.855 570.085 607.69 569.642 607.385C565.136 604.635 565.046 594.317 566.118 584.513C569.982 593.345 574.227 605.643 571.154 607.858Z" fill="black"/>
<path opacity="0.1" d="M574.556 606.257C574.026 607.354 573.341 607.936 572.433 607.858C571.974 607.798 571.535 607.636 571.149 607.385C569.979 606.596 569.088 605.469 568.602 604.162C568.83 599.125 572.057 590.392 574.97 583.889C575.979 592.929 576.324 602.54 574.556 606.257Z" fill="black"/>
<path d="M570.39 564.635C570.39 564.635 561.187 601.781 570.39 607.385C579.593 612.988 572.752 567.925 570.39 564.635Z" fill="#FFBC4F"/>
<path d="M588.048 605.555H549.75V611.767H555.593L555.737 612.5L558.077 624.554H580.341L582.682 612.5L582.825 611.767H588.048V605.555Z" fill="#D4DFEC"/>
<path opacity="0.1" d="M588.032 605.555H549.734V611.767H555.577L555.721 612.5L558.061 624.554H580.325L582.666 612.5L582.809 611.767H588.032V605.555Z" fill="black"/>
<path d="M584.815 609.209L584.173 612.5L581.833 624.554H559.569L557.228 612.5L556.586 609.209H584.815Z" fill="#D4DFEC"/>
<path opacity="0.1" d="M584.815 609.209L584.173 612.5H557.228L556.586 609.209H584.815Z" fill="black"/>
<path d="M589.539 605.555H551.241V611.767H589.539V605.555Z" fill="#D4DFEC"/>
<path d="M262.587 565.794C262.043 566.527 261.607 567.332 261.292 568.185C261.213 568.393 261.133 568.632 261.054 568.861C260.91 568.792 260.759 568.742 260.602 568.71C259.941 568.545 259.256 568.487 258.575 568.539C258.575 568.279 258.602 568.019 258.612 567.723C258.697 564.781 258.342 560.69 255.481 562.421C252.737 564.094 254.695 566.87 256.468 568.658C256.622 568.814 256.771 568.955 256.919 569.095C255.327 570.233 254.998 572.848 254.727 575.588C254.457 578.327 252.074 581.306 250.513 583.021C250.359 583.193 250.211 583.348 250.067 583.494C249.433 582.994 248.696 582.632 247.907 582.433C247.118 582.234 246.295 582.202 245.493 582.34L245.28 581.581C244.007 577.074 241.358 569.267 237.983 567.546L238.429 566.995C239.861 565.155 241.475 562.426 239.092 561.729C236.709 561.033 236.491 564.094 236.624 566.408C236.624 566.693 236.666 566.969 236.693 567.224C236.216 567.245 235.748 567.362 235.318 567.567C234.888 567.772 234.506 568.06 234.193 568.414C234.082 568.279 233.96 568.139 233.827 567.988C231.895 565.747 228.345 562.207 227.273 564.869C226.275 567.364 229.395 570.587 231.593 572.489L231.731 572.604C230.255 578.467 236.688 583.239 240.159 585.329C240.313 585.428 240.461 585.516 240.605 585.599C235.828 591.114 232.872 601.459 232.872 601.459L246.278 603.845C246.278 603.845 255.157 596.344 254.021 589.29H254.112C262.98 587.549 264.997 578.285 263.617 572.786L263.771 572.723C265.386 572.075 266.801 571.027 267.879 569.682C270.341 566.314 265.135 562.493 262.587 565.794Z" fill="#FFBC4F"/>
<path opacity="0.1" d="M262.587 565.794C262.043 566.527 261.607 567.332 261.292 568.185C261.213 568.393 261.133 568.632 261.054 568.861C260.91 568.792 260.759 568.742 260.602 568.71C259.941 568.545 259.256 568.487 258.575 568.539C258.575 568.279 258.602 568.019 258.612 567.723C258.697 564.781 258.342 560.69 255.481 562.421C252.737 564.094 254.695 566.87 256.468 568.658C256.622 568.814 256.771 568.955 256.919 569.095C255.327 570.233 254.998 572.848 254.727 575.588C254.457 578.327 252.074 581.306 250.513 583.021C250.359 583.193 250.211 583.348 250.067 583.494C249.433 582.994 248.696 582.632 247.907 582.433C247.118 582.234 246.295 582.202 245.493 582.34L245.28 581.581C244.007 577.074 241.358 569.267 237.983 567.546L238.429 566.995C239.861 565.155 241.475 562.426 239.092 561.729C236.709 561.033 236.491 564.094 236.624 566.408C236.624 566.693 236.666 566.969 236.693 567.224C236.216 567.245 235.748 567.362 235.318 567.567C234.888 567.772 234.506 568.06 234.193 568.414C234.082 568.279 233.96 568.139 233.827 567.988C231.895 565.747 228.345 562.207 227.273 564.869C226.275 567.364 229.395 570.587 231.593 572.489L231.731 572.604C230.255 578.467 236.688 583.239 240.159 585.329C240.313 585.428 240.461 585.516 240.605 585.599C235.828 591.114 232.872 601.459 232.872 601.459L246.278 603.845C246.278 603.845 255.157 596.344 254.021 589.29H254.112C262.98 587.549 264.997 578.285 263.617 572.786L263.771 572.723C265.386 572.075 266.801 571.027 267.879 569.682C270.341 566.314 265.135 562.493 262.587 565.794Z" fill="black"/>
<path d="M235.945 569.589L234.379 574.08C234.379 574.08 233.509 573.477 232.41 572.521C230.213 570.639 227.103 567.395 228.09 564.9C229.151 562.218 232.713 565.758 234.65 568.019C235.425 568.913 235.945 569.589 235.945 569.589Z" fill="#FFBC4F"/>
<path d="M239.246 567.031C238.77 567.643 238.261 568.229 237.723 568.788C237.587 568.007 237.494 567.219 237.441 566.428C237.314 564.131 237.558 561.08 239.909 561.75C242.26 562.421 240.679 565.191 239.246 567.031Z" fill="#FFBC4F"/>
<path d="M259.435 567.738C259.382 569.215 259.238 570.395 259.238 570.395C258.55 569.867 257.897 569.296 257.285 568.684C255.513 566.886 253.57 564.11 256.304 562.447C259.164 560.705 259.514 564.796 259.435 567.738Z" fill="#FFBC4F"/>
<path d="M268.68 569.672C267.603 571.017 266.187 572.065 264.572 572.713C264.124 572.905 263.663 573.069 263.192 573.202L261.351 570.665C261.546 569.827 261.801 569.004 262.115 568.201C262.427 567.347 262.863 566.542 263.41 565.81C265.958 562.493 271.159 566.314 268.68 569.672Z" fill="#FFBC4F"/>
<path opacity="0.1" d="M234.65 568.009C235.425 568.903 235.945 569.568 235.945 569.568L234.379 574.059C234.379 574.059 233.509 573.456 232.41 572.5C232.655 571.062 233.26 569.706 234.172 568.554C234.331 568.367 234.491 568.185 234.65 568.009Z" fill="black"/>
<path opacity="0.1" d="M239.246 567.031C238.77 567.642 238.261 568.229 237.723 568.788C237.587 568.007 237.494 567.219 237.441 566.428C238.092 566.439 238.724 566.65 239.246 567.031V567.031Z" fill="black"/>
<path d="M246.941 584.84L243.051 586.519C242.34 586.171 241.647 585.788 240.976 585.371C236.884 582.907 228.658 576.705 234.172 569.391C239.686 562.077 244.288 575.193 246.098 581.607C246.65 583.525 246.941 584.84 246.941 584.84Z" fill="#FFBC4F"/>
<path opacity="0.1" d="M257.285 568.684C257.852 568.111 258.621 567.773 259.435 567.738C259.382 569.215 259.239 570.395 259.239 570.395C258.55 569.867 257.897 569.296 257.285 568.684V568.684Z" fill="black"/>
<path opacity="0.1" d="M264.572 572.713C264.124 572.905 263.663 573.069 263.192 573.202L261.351 570.665C261.546 569.827 261.801 569.004 262.115 568.201C263.304 568.882 264.18 570.577 264.572 572.713Z" fill="black"/>
<path d="M254.908 589.28C254.695 589.321 254.473 589.363 254.255 589.394C241.204 591.338 249.951 584.44 249.951 584.44C249.951 584.44 250.54 583.92 251.336 583.047C252.928 581.342 255.279 578.369 255.55 575.614C255.959 571.455 256.431 567.582 261.425 568.726C266.324 569.849 267.258 586.857 254.908 589.28Z" fill="#FFBC4F"/>
<path d="M254.669 621.103H229.735V627.522H254.669V621.103Z" fill="#D4DFEC"/>
<path d="M258.347 600.232H225.771V622.641H258.347V600.232Z" fill="#D4DFEC"/>
<path opacity="0.1" d="M254.669 621.103H229.735V627.522H254.669V621.103Z" fill="black"/>
<path opacity="0.1" d="M258.347 600.232H225.771V622.641H258.347V600.232Z" fill="black"/>
<path d="M256.304 621.103H231.37V627.522H256.304V621.103Z" fill="#D4DFEC"/>
<path opacity="0.1" d="M246.098 581.607C246.628 583.525 246.941 584.84 246.941 584.84L243.051 586.519C242.34 586.171 241.647 585.788 240.976 585.37C242.499 583.468 244.219 582.049 246.098 581.607Z" fill="black"/>
<path opacity="0.1" d="M254.908 589.28C254.695 589.321 254.473 589.363 254.255 589.394C241.204 591.338 249.951 584.44 249.951 584.44C249.951 584.44 250.54 583.92 251.336 583.047C253.772 584.955 254.77 587.107 254.908 589.28Z" fill="black"/>
<path d="M233.694 601.5C233.694 601.5 241.003 575.884 251.246 583.775C261.489 591.666 247.079 603.845 247.079 603.845L233.694 601.5Z" fill="#FFBC4F"/>
<path opacity="0.1" d="M237.383 574.21C237.834 574.21 238.2 573.852 238.2 573.41C238.2 572.967 237.834 572.609 237.383 572.609C236.932 572.609 236.566 572.967 236.566 573.41C236.566 573.852 236.932 574.21 237.383 574.21Z" fill="black"/>
<path opacity="0.1" d="M237.314 577.953C237.765 577.953 238.131 577.594 238.131 577.152C238.131 576.71 237.765 576.352 237.314 576.352C236.863 576.352 236.497 576.71 236.497 577.152C236.497 577.594 236.863 577.953 237.314 577.953Z" fill="black"/>
<path opacity="0.1" d="M261.08 574.943C261.532 574.943 261.897 574.585 261.897 574.142C261.897 573.7 261.532 573.342 261.08 573.342C260.629 573.342 260.263 573.7 260.263 574.142C260.263 574.585 260.629 574.943 261.08 574.943Z" fill="black"/>
<path opacity="0.1" d="M241.958 594.14C242.409 594.14 242.775 593.781 242.775 593.339C242.775 592.897 242.409 592.539 241.958 592.539C241.506 592.539 241.141 592.897 241.141 593.339C241.141 593.781 241.506 594.14 241.958 594.14Z" fill="black"/>
<path opacity="0.1" d="M259.376 581.165C259.828 581.165 260.194 580.807 260.194 580.365C260.194 579.923 259.828 579.564 259.376 579.564C258.925 579.564 258.559 579.923 258.559 580.365C258.559 580.807 258.925 581.165 259.376 581.165Z" fill="black"/>
<path opacity="0.1" d="M250.906 589.462C251.357 589.462 251.723 589.103 251.723 588.661C251.723 588.219 251.357 587.86 250.906 587.86C250.455 587.86 250.089 588.219 250.089 588.661C250.089 589.103 250.455 589.462 250.906 589.462Z" fill="black"/>
<path opacity="0.1" d="M240.185 575.811C240.637 575.811 241.003 575.453 241.003 575.011C241.003 574.568 240.637 574.21 240.185 574.21C239.734 574.21 239.368 574.568 239.368 575.011C239.368 575.453 239.734 575.811 240.185 575.811Z" fill="black"/>
<path opacity="0.1" d="M258.83 577.35C259.281 577.35 259.647 576.991 259.647 576.549C259.647 576.107 259.281 575.749 258.83 575.749C258.378 575.749 258.013 576.107 258.013 576.549C258.013 576.991 258.378 577.35 258.83 577.35Z" fill="black"/>
<path opacity="0.1" d="M256.028 583.572C256.479 583.572 256.845 583.214 256.845 582.771C256.845 582.329 256.479 581.971 256.028 581.971C255.576 581.971 255.21 582.329 255.21 582.771C255.21 583.214 255.576 583.572 256.028 583.572Z" fill="black"/>
<path opacity="0.1" d="M247.424 593.542C247.876 593.542 248.242 593.184 248.242 592.742C248.242 592.299 247.876 591.941 247.424 591.941C246.973 591.941 246.607 592.299 246.607 592.742C246.607 593.184 246.973 593.542 247.424 593.542Z" fill="black"/>
<path opacity="0.1" d="M245.646 589.591C246.098 589.591 246.464 589.233 246.464 588.791C246.464 588.349 246.098 587.99 245.646 587.99C245.195 587.99 244.829 588.349 244.829 588.791C244.829 589.233 245.195 589.591 245.646 589.591Z" fill="black"/>
<path opacity="0.1" d="M241.411 580.697C241.863 580.697 242.229 580.339 242.229 579.897C242.229 579.455 241.863 579.096 241.411 579.096C240.96 579.096 240.594 579.455 240.594 579.897C240.594 580.339 240.96 580.697 241.411 580.697Z" fill="black"/>
<path opacity="0.1" d="M256.304 621.103H231.37V623.447H256.304V621.103Z" fill="black"/>
<path d="M259.987 600.232H227.411V622.641H259.987V600.232Z" fill="#D4DFEC"/>
<path opacity="0.1" d="M248.518 597.155C248.969 597.155 249.335 596.796 249.335 596.354C249.335 595.912 248.969 595.554 248.518 595.554C248.066 595.554 247.7 595.912 247.7 596.354C247.7 596.796 248.066 597.155 248.518 597.155Z" fill="black"/>
<path opacity="0.1" d="M243.598 598.158C244.049 598.158 244.415 597.8 244.415 597.358C244.415 596.915 244.049 596.557 243.598 596.557C243.146 596.557 242.781 596.915 242.781 597.358C242.781 597.8 243.146 598.158 243.598 598.158Z" fill="black"/>
</g>
</g>
<defs>
<linearGradient id="paint0_linear" x1="405.498" y1="619.439" x2="405.498" y2="298" gradientUnits="userSpaceOnUse">
<stop offset="0.2" stop-color="#808080" stop-opacity="0.4"/>
<stop offset="0.46" stop-color="#808080" stop-opacity="0.5"/>
<stop offset="1" stop-opacity="0.6"/>
</linearGradient>
<linearGradient id="paint1_linear" x1="404.091" y1="665.927" x2="404.091" y2="374.605" gradientUnits="userSpaceOnUse">
<stop stop-color="#808080" stop-opacity="0.25"/>
<stop offset="0.54" stop-color="#808080" stop-opacity="0.12"/>
<stop offset="1" stop-color="#808080" stop-opacity="0.1"/>
</linearGradient>
<clipPath id="clip0">
<rect width="1440" height="1024" fill="white"/>
</clipPath>
<clipPath id="clip1">
<rect width="589" height="389" fill="white" transform="translate(111 298)"/>
</clipPath>
</defs>
</svg>
